HIERARCHY
ROOT hip
{
  OFFSET -0.159091 90.5703 0.535219
  CHANNELS 6 Xposition Yposition Zposition Zrotation Xrotation Yrotation
  JOINT abdomen
  {
    OFFSET 0 7.2397 0
    CHANNELS 6 Xposition Yposition Zposition Zrotation Xrotation Yrotation
    JOINT chest
    {
      OFFSET 0 16.546 0
      CHANNELS 6 Xposition Yposition Zposition Zrotation Xrotation Yrotation
      JOINT neck
      {
        OFFSET 0 34.2149 0
        CHANNELS 6 Xposition Yposition Zposition Zrotation Xrotation Yrotation
        JOINT head
        {
          OFFSET 0 6.2923 0
          CHANNELS 6 Xposition Yposition Zposition Zrotation Xrotation Yrotation
          End Site
          {
            OFFSET 0 21.2161 0
          }
        }
      }
      JOINT lCollar
      {
        OFFSET 4.0639 26.6115 -1.1234
        CHANNELS 6 Xposition Yposition Zposition Zrotation Xrotation Yrotation
        JOINT lShldr
        {
          OFFSET 14.1772 0 0
          CHANNELS 6 Xposition Yposition Zposition Zrotation Xrotation Yrotation
          JOINT lForeArm
          {
            OFFSET 26.1234 0 0
            CHANNELS 6 Xposition Yposition Zposition Zrotation Xrotation Yrotation
            JOINT lHand
            {
              OFFSET 27.7188 0 0
              CHANNELS 6 Xposition Yposition Zposition Zrotation Xrotation Yrotation
              JOINT lThumb1
              {
                OFFSET 2.2979 -0.4685 1.8313
                CHANNELS 6 Xposition Yposition Zposition Zrotation Xrotation Yrotation
                JOINT lThumb2
                {
                  OFFSET 5.2953 0 0
                  CHANNELS 6 Xposition Yposition Zposition Zrotation Xrotation Yrotation
                  JOINT lThumb3
                  {
                    OFFSET 3.0181 0 0
                    CHANNELS 6 Xposition Yposition Zposition Zrotation Xrotation Yrotation
                    End Site
                    {
                      OFFSET 2.6294 0 0
                    }
                  }
                }
              }
              JOINT lIndex1
              {
                OFFSET 9.3793 0.2991 2.5924
                CHANNELS 6 Xposition Yposition Zposition Zrotation Xrotation Yrotation
                JOINT lIndex2
                {
                  OFFSET 4.3461 0 0
                  CHANNELS 6 Xposition Yposition Zposition Zrotation Xrotation Yrotation
                  JOINT lIndex3
                  {
                    OFFSET 2.1666 0 0
                    CHANNELS 6 Xposition Yposition Zposition Zrotation Xrotation Yrotation
                    End Site
                    {
                      OFFSET 2.2048 0 0
                    }
                  }
                }
              }
              JOINT lMid1
              {
                OFFSET 9.4769 0.8376 0.2947
                CHANNELS 6 Xposition Yposition Zposition Zrotation Xrotation Yrotation
                JOINT lMid2
                {
                  OFFSET 4.772 0 0
                  CHANNELS 6 Xposition Yposition Zposition Zrotation Xrotation Yrotation
                  JOINT lMid3
                  {
                    OFFSET 2.8722 0 0
                    CHANNELS 6 Xposition Yposition Zposition Zrotation Xrotation Yrotation
                    End Site
                    {
                      OFFSET 2.0959 0 0
                    }
                  }
                }
              }
              JOINT lRing1
              {
                OFFSET 8.6586 1.0176 -1.7016
                CHANNELS 6 Xposition Yposition Zposition Zrotation Xrotation Yrotation
                JOINT lRing2
                {
                  OFFSET 4.5461 0 0
                  CHANNELS 6 Xposition Yposition Zposition Zrotation Xrotation Yrotation
                  JOINT lRing3
                  {
                    OFFSET 2.506 0 0
                    CHANNELS 6 Xposition Yposition Zposition Zrotation Xrotation Yrotation
                    End Site
                    {
                      OFFSET 2.2023 0 0
                    }
                  }
                }
              }
              JOINT lPinky1
              {
                OFFSET 7.6901 0.6618 -3.9096
                CHANNELS 6 Xposition Yposition Zposition Zrotation Xrotation Yrotation
                JOINT lPinky2
                {
                  OFFSET 3.2119 0 0
                  CHANNELS 6 Xposition Yposition Zposition Zrotation Xrotation Yrotation
                  JOINT lPinky3
                  {
                    OFFSET 1.924 0 0
                    CHANNELS 6 Xposition Yposition Zposition Zrotation Xrotation Yrotation
                    End Site
                    {
                      OFFSET 1.7829 0 0
                    }
                  }
                }
              }
            }
          }
        }
      }
      JOINT rCollar
      {
        OFFSET -4.0677 26.6109 -1.1234
        CHANNELS 6 Xposition Yposition Zposition Zrotation Xrotation Yrotation
        JOINT rShldr
        {
          OFFSET -14.1772 0 0
          CHANNELS 6 Xposition Yposition Zposition Zrotation Xrotation Yrotation
          JOINT rForeArm
          {
            OFFSET -26.1234 0 0
            CHANNELS 6 Xposition Yposition Zposition Zrotation Xrotation Yrotation
            JOINT rHand
            {
              OFFSET -27.7188 0 0
              CHANNELS 6 Xposition Yposition Zposition Zrotation Xrotation Yrotation
              JOINT rThumb1
              {
                OFFSET -2.2979 -0.4684 1.8313
                CHANNELS 6 Xposition Yposition Zposition Zrotation Xrotation Yrotation
                JOINT rThumb2
                {
                  OFFSET -5.2953 0 0
                  CHANNELS 6 Xposition Yposition Zposition Zrotation Xrotation Yrotation
                  JOINT rThumb3
                  {
                    OFFSET -3.0181 0 0
                    CHANNELS 6 Xposition Yposition Zposition Zrotation Xrotation Yrotation
                    End Site
                    {
                      OFFSET -2.6294 0 0
                    }
                  }
                }
              }
              JOINT rIndex1
              {
                OFFSET -9.3793 0.2991 2.5924
                CHANNELS 6 Xposition Yposition Zposition Zrotation Xrotation Yrotation
                JOINT rIndex2
                {
                  OFFSET -4.3461 0 0
                  CHANNELS 6 Xposition Yposition Zposition Zrotation Xrotation Yrotation
                  JOINT rIndex3
                  {
                    OFFSET -2.1666 0 0
                    CHANNELS 6 Xposition Yposition Zposition Zrotation Xrotation Yrotation
                    End Site
                    {
                      OFFSET -2.2048 0 0
                    }
                  }
                }
              }
              JOINT rMid1
              {
                OFFSET -9.4769 0.8376 0.2947
                CHANNELS 6 Xposition Yposition Zposition Zrotation Xrotation Yrotation
                JOINT rMid2
                {
                  OFFSET -4.772 0 0
                  CHANNELS 6 Xposition Yposition Zposition Zrotation Xrotation Yrotation
                  JOINT rMid3
                  {
                    OFFSET -2.8722 0 0
                    CHANNELS 6 Xposition Yposition Zposition Zrotation Xrotation Yrotation
                    End Site
                    {
                      OFFSET -2.0959 0 0
                    }
                  }
                }
              }
              JOINT rRing1
              {
                OFFSET -8.6586 1.0176 -1.7016
                CHANNELS 6 Xposition Yposition Zposition Zrotation Xrotation Yrotation
                JOINT rRing2
                {
                  OFFSET -4.5461 0 0
                  CHANNELS 6 Xposition Yposition Zposition Zrotation Xrotation Yrotation
                  JOINT rRing3
                  {
                    OFFSET -2.506 0 0
                    CHANNELS 6 Xposition Yposition Zposition Zrotation Xrotation Yrotation
                    End Site
                    {
                      OFFSET -2.2023 0 0
                    }
                  }
                }
              }
              JOINT rPinky1
              {
                OFFSET -7.6901 0.6618 -3.9096
                CHANNELS 6 Xposition Yposition Zposition Zrotation Xrotation Yrotation
                JOINT rPinky2
                {
                  OFFSET -3.2119 0 0
                  CHANNELS 6 Xposition Yposition Zposition Zrotation Xrotation Yrotation
                  JOINT rPinky3
                  {
                    OFFSET -1.924 0 0
                    CHANNELS 6 Xposition Yposition Zposition Zrotation Xrotation Yrotation
                    End Site
                    {
                      OFFSET -1.7829 0 0
                    }
                  }
                }
              }
            }
          }
        }
      }
    }
  }
  JOINT lThigh
  {
    OFFSET 8.7379 -0.0029 0.0005
    CHANNELS 6 Xposition Yposition Zposition Zrotation Xrotation Yrotation
    JOINT lShin
    {
      OFFSET 0 -46.6676 0
      CHANNELS 6 Xposition Yposition Zposition Zrotation Xrotation Yrotation
      JOINT lFoot
      {
        OFFSET 0 -40.1476 0
        CHANNELS 6 Xposition Yposition Zposition Zrotation Xrotation Yrotation
        JOINT lToes
        {
          OFFSET 0 -8.8846 14.2294
          CHANNELS 6 Xposition Yposition Zposition Zrotation Xrotation Yrotation
          End Site
          {
            OFFSET 0 0 6.296
          }
        }
      }
    }
  }
  JOINT rThigh
  {
    OFFSET -8.7379 0.0029 -0.0005
    CHANNELS 6 Xposition Yposition Zposition Zrotation Xrotation Yrotation
    JOINT rShin
    {
      OFFSET 0 -46.6676 0
      CHANNELS 6 Xposition Yposition Zposition Zrotation Xrotation Yrotation
      JOINT rFoot
      {
        OFFSET 0 -40.1476 0
        CHANNELS 6 Xposition Yposition Zposition Zrotation Xrotation Yrotation
        JOINT rToes
        {
          OFFSET 0 -8.8846 14.2294
          CHANNELS 6 Xposition Yposition Zposition Zrotation Xrotation Yrotation
          End Site
          {
            OFFSET 0 0 6.296
          }
        }
      }
    }
  }
}
MOTION
Frames:	4
Frame Time:	0.0333333
1.94239 92.5365 4.21051 -3.29928 -2.27375 -24.1208 0 7.2397 0 -3.78934 3.43392 -5.95578 8.88178e-16 16.546 0 -8.08511 9.12529 -10.9836 0 34.2149 3.55271e-15 11.838 39.0751 14.5349 0 6.2923 -1.42109e-14 -14.0409 -37.0778 15.2475 4.0639 26.6115 -1.1234 -9.17522 -2.88006 -4.79023 14.1772 -2.84217e-14 0 -36.164 17.4509 2.55503 26.1234 0 7.10543e-15 -0.592576 0.206956 -48.0985 27.7188 0 0 2.01311 13.0205 1.78264 2.2979 -0.4685 1.8313 62.0636 72.5375 -89.7057 5.2953 0 0 0.80501 1.48512 3.0245 3.0181 0 -1.42109e-14 12.4883 -9.02112e-05 -1.16927e-05 9.3793 0.2991 2.5924 -6.80313 6.29768 -0.533887 4.3461 -1.42109e-14 0 -16.9641 -0.139119 2.48761 2.1666 0 0 -2.1684 -5.87186e-06 -6.74295e-06 9.4769 0.8376 0.2947 -4.2931 -3.55166 6.01778 4.772 0 -1.77636e-15 -22.1028 -0.401836 1.97644 2.8722 0 1.77636e-15 3.9574 0.0710936 0.399391 8.6586 1.0176 -1.7016 -7.28158 1.90456 9.95476 4.5461 0 3.33067e-15 -30.1551 1.04493 -2.09982 2.506 0 0 6.7605 -1.6146e-06 -9.18809e-05 7.6901 0.6618 -3.9096 -9.67703 -15.764 14.5703 3.2119 -1.42109e-14 -3.55271e-15 -35.6407 0.42927 1.54337 1.924 0 3.55271e-15 4.41309 6.04869e-06 -3.19169e-06 -4.0677 26.6109 -1.1234 -11.8859 -4.90587 -0.866697 -14.1772 -2.84217e-14 -3.33067e-16 60.9538 41.4432 -42.687 -26.1234 0 -1.42109e-14 0.713138 1.10932 115.135 -27.7188 0 -1.06581e-14 37.0029 -31.9497 7.33602 -2.2979 -0.4684 1.8313 -119.993 70.1812 119.943 -5.2953 0 0 5.53201 31.3399 10.2292 -3.0181 0 -7.10543e-15 -12.4883 -0.000102769 0.000109239 -9.3793 0.2991 2.5924 -14.5213 1.82161 -1.28171 -4.3461 0 -7.10543e-15 24.5528 -0.607282 -3.85665 -2.1666 5.32907e-15 0 2.16821 -5.8412e-06 5.8553e-06 -9.4769 0.8376 0.2947 9.40488 -4.37632 -0.840731 -4.772 -7.10543e-15 7.10543e-15 96.3418 -6.14208 -5.09344 -2.8722 -1.42109e-14 -7.10543e-15 -3.95751 0.0710034 -0.399398 -8.6586 1.0176 -1.7016 23.2387 -2.39752 4.0335 -4.5461 7.10543e-15 -7.10543e-15 88.5546 4.56303 4.225 -2.506 0 0 -6.76051 5.42179e-06 3.19695e-06 -7.6901 0.6618 -3.9096 11.7053 -7.125 -0.421642 -3.2119 -7.10543e-15 -7.10543e-15 65.2629 2.77082 -1.71172 -1.924 1.42109e-14 7.10543e-15 -4.41299 -2.07802e-06 -4.87711e-06 8.7379 -0.0029 0.0005 13.6734 -5.89158 17.7908 0 -46.6676 -3.55271e-15 3.57264 35.9945 -1.07095 -3.55271e-15 -40.1476 -2.66454e-15 -12.2764 -21.1805 13.1377 0 -8.8846 14.2294 0.0001 0 -3.18055e-15 -8.7379 0.0029 -0.0005 -8.81678 -9.69699 0.310428 -3.55271e-15 -46.6676 0 -2.7995 30.7285 0.475387 0 -40.1476 2.66454e-15 13.2058 -17.528 -13.1621 0 -8.8846 14.2294 1.67725e-16 -3.10601e-17 9.54166e-15 
1.93365 92.4375 3.96856 -3.56824 -2.34596 -24.2722 0 7.2397 -1.77636e-15 -3.7569 3.79214 -6.30872 8.88178e-16 16.546 -4.44089e-16 -8.03589 9.86643 -11.6595 -3.55271e-15 34.2149 1.77636e-15 11.898 38.4572 15.3076 3.55271e-15 6.2923 -2.84217e-14 -14.5771 -37.4461 15.801 4.0639 26.6115 -1.1234 -9.04407 -2.89237 -4.77767 14.1772 0 1.77636e-15 -36.2959 17.7012 2.07115 26.1234 -1.42109e-14 0 -0.600023 0.217786 -49.0505 27.7188 0 0 1.81103 13.2882 1.94882 2.2979 -0.4685 1.8313 61.7319 72.7995 -88.1189 5.2953 0 -7.10543e-15 0.812193 1.44097 3.05219 3.0181 0 0 12.4883 -9.02112e-05 -1.16927e-05 9.3793 0.2991 2.5924 -6.71781 6.29668 -0.0331932 4.3461 0 0 -17.3249 -0.1546 2.52822 2.1666 0 -1.77636e-15 -2.1684 -5.87186e-06 -6.74295e-06 9.4769 0.8376 0.2947 -4.50035 -3.56897 6.02464 4.772 0 0 -22.5087 -0.415846 2.00148 2.8722 0 1.77636e-15 3.9574 0.0710936 0.399391 8.6586 1.0176 -1.7016 -7.55171 1.87332 9.94555 4.5461 0 0 -30.5287 1.05903 -2.11152 2.506 7.10543e-15 1.77636e-15 6.7605 -1.6146e-06 -9.18809e-05 7.6901 0.6618 -3.9096 -10.0509 -15.8413 14.0602 3.2119 1.42109e-14 0 -36.0421 0.417586 1.59319 1.924 0 3.55271e-15 4.41309 6.04869e-06 -3.19169e-06 -4.0677 26.6109 -1.1234 -11.5772 -4.86854 -0.840591 -14.1772 2.84217e-14 -6.66134e-16 69.6182 44.5617 -48.5584 -26.1234 0 0 0.739918 1.06258 112.248 -27.7188 0 3.55271e-15 36.5799 -33.5817 7.27363 -2.2979 -0.4684 1.8313 -105.058 62.4568 105.08 -5.2953 0 1.77636e-15 5.45158 30.8312 10.1891 -3.0181 -1.42109e-14 0 -12.4883 -0.000102769 0.000109239 -9.3793 0.2991 2.5924 -12.6746 1.96702 0.136933 -4.3461 0 7.10543e-15 21.0009 -0.406626 -3.38436 -2.1666 7.10543e-15 -7.10543e-15 2.16821 -5.8412e-06 5.8553e-06 -9.4769 0.8376 0.2947 7.25728 -4.3524 -1.59554 -4.772 0 0 96.1349 -6.11703 -5.10615 -2.8722 1.42109e-14 -7.10543e-15 -3.95751 0.0710034 -0.399398 -8.6586 1.0176 -1.7016 21.144 -2.35189 2.8249 -4.5461 0 7.10543e-15 88.2219 4.53615 4.23622 -2.506 0 -7.10543e-15 -6.76051 5.42179e-06 3.19695e-06 -7.6901 0.6618 -3.9096 10.011 -7.26402 1.08255 -3.2119 7.10543e-15 0 63.2097 2.78293 -1.63518 -1.924 2.84217e-14 -7.10543e-15 -4.41299 -2.07802e-06 -4.87711e-06 8.7379 -0.0029 0.0005 13.9889 -5.98449 17.838 -3.55271e-15 -46.6676 3.55271e-15 3.63187 36.3938 -1.09489 0 -40.1476 -2.66454e-15 -12.2064 -21.4199 13.1629 -3.55271e-15 -8.8846 14.2294 0.0001 1.98785e-16 -0 -8.7379 0.0029 -0.0005 -8.62049 -9.82299 0.033633 3.55271e-15 -46.6676 0 -2.8353 31.0046 0.485384 -3.55271e-15 -40.1476 1.77636e-15 13.3061 -17.5878 -12.6483 0 -8.8846 14.2294 -8.69683e-17 -3.72721e-17 -3.18055e-15 
1.9136 92.3134 3.67222 -3.87409 -2.43932 -24.5857 0 7.2397 -1.77636e-15 -3.64835 4.09275 -6.51702 -2.66454e-15 16.546 4.44089e-16 -7.83846 10.4739 -12.0658 0 34.2149 -3.55271e-15 11.6591 37.8004 16.0775 0 6.2923 -1.42109e-14 -14.8703 -37.4524 16.3452 4.0639 26.6115 -1.1234 -8.75498 -2.91944 -4.74932 14.1772 0 1.77636e-15 -37.0296 17.7451 0.936069 26.1234 0 0 -0.598056 0.21679 -48.99 27.7188 0 0 1.67642 13.6067 2.00829 2.2979 -0.4685 1.8313 61.653 72.9082 -86.9433 5.2953 -7.10543e-15 0 0.80336 1.49463 3.01803 3.0181 7.10543e-15 0 12.4883 -9.02112e-05 -1.16927e-05 9.3793 0.2991 2.5924 -6.38794 6.30392 0.333527 4.3461 1.42109e-14 1.77636e-15 -17.6383 -0.168264 2.56342 2.1666 0 1.77636e-15 -2.1684 -5.87186e-06 -6.74295e-06 9.4769 0.8376 0.2947 -4.52882 -3.57718 6.05434 4.772 0 1.77636e-15 -22.8524 -0.42793 2.02261 2.8722 0 0 3.9574 0.0710936 0.399391 8.6586 1.0176 -1.7016 -7.63654 1.85355 9.93899 4.5461 -2.84217e-14 -4.44089e-15 -30.8532 1.07132 -2.12163 2.506 0 1.77636e-15 6.7605 -1.6146e-06 -9.18809e-05 7.6901 0.6618 -3.9096 -10.3498 -15.9076 13.5716 3.2119 0 0 -36.3907 0.407168 1.63638 1.924 3.55271e-15 0 4.41309 6.04869e-06 -3.19169e-06 -4.0677 26.6109 -1.1234 -10.7198 -4.7945 -0.405959 -14.1772 -2.84217e-14 -2.22045e-15 79.0351 46.5959 -54.0203 -26.1234 -7.10543e-15 0 0.771453 1.00525 108.542 -27.7188 0 -3.55271e-15 33.0728 -35.9976 5.14759 -2.2979 -0.4684 1.8313 -96.0016 54.0261 95.3039 -5.2953 0 3.55271e-15 5.35167 30.2027 10.1328 -3.0181 -1.42109e-14 -1.77636e-15 -12.4883 -0.000102769 0.000109239 -9.3793 0.2991 2.5924 -11.5103 2.16758 0.326134 -4.3461 8.88178e-16 -1.42109e-14 18.5905 -0.286051 -3.05816 -2.1666 7.10543e-15 -3.55271e-15 2.16821 -5.8412e-06 5.8553e-06 -9.4769 0.8376 0.2947 6.04853 -4.36649 -2.08209 -4.772 0 -3.55271e-15 95.8868 -6.08673 -5.12174 -2.8722 0 3.55271e-15 -3.95751 0.0710034 -0.399398 -8.6586 1.0176 -1.7016 19.4066 -2.31407 1.71761 -4.5461 -7.10543e-15 0 87.8858 4.5086 4.25012 -2.506 -1.42109e-14 7.10543e-15 -6.76051 5.42179e-06 3.19695e-06 -7.6901 0.6618 -3.9096 8.35046 -7.46887 2.64304 -3.2119 7.10543e-15 0 61.9338 2.73537 -1.56878 -1.924 0 3.55271e-15 -4.41299 -2.07802e-06 -4.87711e-06 8.7379 -0.0029 0.0005 14.3327 -6.0847 17.912 -3.55271e-15 -46.6676 3.55271e-15 3.71063 36.9206 -1.12779 0 -40.1476 3.10862e-15 -12.0482 -21.7235 13.3504 0 -8.8846 14.2294 0.0001 3.97569e-16 1.59028e-15 -8.7379 0.0029 -0.0005 -8.34297 -10.0214 -0.0324392 0 -46.6676 0 -2.88493 31.3797 0.5054 3.55271e-15 -40.1476 2.66454e-15 13.4513 -17.7334 -12.1682 -1.06581e-14 -8.8846 14.2294 -4.96962e-17 -9.93923e-17 6.36111e-15 
1.87949 92.2044 3.37267 -4.25261 -2.06954 -24.942 4.44089e-16 7.2397 0 -3.4409 4.21667 -6.72921 -1.77636e-15 16.546 6.66134e-16 -7.51223 10.7221 -12.5031 0 34.2149 1.77636e-15 11.4688 37.5509 16.7931 7.10543e-15 6.2923 -1.42109e-14 -15.3982 -37.193 16.8492 4.0639 26.6115 -1.1234 -8.40196 -2.95238 -4.71476 14.1772 0 -1.77636e-15 -37.7653 17.6972 -0.4126 26.1234 0 -3.55271e-15 -0.589278 0.206722 -48.1397 27.7188 0 -1.42109e-14 1.93365 13.8942 1.87683 2.2979 -0.4685 1.8313 61.763 73.1743 -86.2624 5.2953 0 0 0.813553 1.43176 3.05751 3.0181 -1.42109e-14 0 12.4883 -9.02112e-05 -1.16927e-05 9.3793 0.2991 2.5924 -6.27599 6.30475 0.694011 4.3461 -1.42109e-14 -5.32907e-15 -17.9292 -0.180861 2.59609 2.1666 1.42109e-14 -1.77636e-15 -2.1684 -5.87186e-06 -6.74295e-06 9.4769 0.8376 0.2947 -4.61949 -3.58526 6.08355 4.772 0 -3.55271e-15 -23.1482 -0.438287 2.04074 2.8722 0 -7.10543e-15 3.9574 0.0710936 0.399391 8.6586 1.0176 -1.7016 -7.74117 1.8373 9.93458 4.5461 0 0 -31.118 1.08142 -2.12977 2.506 0 -2.66454e-15 6.7605 -1.6146e-06 -9.18809e-05 7.6901 0.6618 -3.9096 -10.6725 -15.972 13.2149 3.2119 0 3.55271e-15 -36.6737 0.398715 1.67144 1.924 -3.55271e-15 7.10543e-15 4.41309 6.04869e-06 -3.19169e-06 -4.0677 26.6109 -1.1234 -9.42426 -4.70572 0.402848 -14.1772 -5.68434e-14 -8.88178e-16 87.8837 47.77 -58.1168 -26.1234 1.42109e-14 0 0.804647 0.936628 103.916 -27.7188 7.10543e-15 -3.55271e-15 26.9066 -38.2997 1.9013 -2.2979 -0.4684 1.8313 -89.3968 42.8491 87.2677 -5.2953 2.84217e-14 7.10543e-15 5.23353 29.4659 10.0573 -3.0181 0 1.77636e-15 -12.4883 -0.000102769 0.000109239 -9.3793 0.2991 2.5924 -9.32497 2.36469 0.569659 -4.3461 -5.32907e-15 0 17.5272 -0.235114 -2.91404 -2.1666 -7.10543e-15 -3.55271e-15 2.16821 -5.8412e-06 5.8553e-06 -9.4769 0.8376 0.2947 3.76851 -4.35317 -2.9077 -4.772 0 0 95.6264 -6.05388 -5.13966 -2.8722 0 1.77636e-15 -3.95751 0.0710034 -0.399398 -8.6586 1.0176 -1.7016 15.5464 -2.24598 -0.634711 -4.5461 1.42109e-14 0 87.2658 4.45919 4.26547 -2.506 1.42109e-14 0 -6.76051 5.42179e-06 3.19695e-06 -7.6901 0.6618 -3.9096 6.79808 -7.50334 6.78818 -3.2119 0 0 56.0787 2.88334 -1.3616 -1.924 -1.42109e-14 7.10543e-15 -4.41299 -2.07802e-06 -4.87711e-06 8.7379 -0.0029 0.0005 14.9059 -6.61789 17.8732 3.55271e-15 -46.6676 0 3.81074 37.5759 -1.172 0 -40.1476 3.9968e-15 -11.9649 -22.0999 13.7663 3.55271e-15 -8.8846 14.2294 0.0001 0 -1.59028e-15 -8.7379 0.0029 -0.0005 -7.72668 -10.5276 0.180582 -3.55271e-15 -46.6676 -3.55271e-15 -2.90977 31.5766 0.517415 -3.55271e-15 -40.1476 -2.66454e-15 13.5368 -17.8189 -12.0338 0 -8.8846 14.2294 4.96962e-17 9.93923e-17 6.36111e-15 
